%TF.GenerationSoftware,KiCad,Pcbnew,(6.0.2-0)*%
%TF.CreationDate,2022-03-21T23:10:47-05:00*%
%TF.ProjectId,EE515X_Project,45453531-3558-45f5-9072-6f6a6563742e,rev?*%
%TF.SameCoordinates,Original*%
%TF.FileFunction,Copper,L2,Inr*%
%TF.FilePolarity,Positive*%
%FSLAX46Y46*%
G04 Gerber Fmt 4.6, Leading zero omitted, Abs format (unit mm)*
G04 Created by KiCad (PCBNEW (6.0.2-0)) date 2022-03-21 23:10:47*
%MOMM*%
%LPD*%
G01*
G04 APERTURE LIST*
%TA.AperFunction,ComponentPad*%
%ADD10C,0.762000*%
%TD*%
%TA.AperFunction,ViaPad*%
%ADD11C,0.800000*%
%TD*%
%TA.AperFunction,ViaPad*%
%ADD12C,0.508000*%
%TD*%
G04 APERTURE END LIST*
D10*
%TO.N,GND*%
%TO.C,J2*%
X82158688Y-112826800D03*
X82158688Y-110693200D03*
X80888688Y-110693200D03*
X79618688Y-110693200D03*
X78348688Y-110693200D03*
X78348688Y-112826800D03*
X80888688Y-112826800D03*
X79618688Y-112826800D03*
%TD*%
%TO.N,GND*%
%TO.C,J1*%
X82169000Y-98094800D03*
X82169000Y-95961200D03*
X80899000Y-95961200D03*
X79629000Y-95961200D03*
X78359000Y-95961200D03*
X78359000Y-98094800D03*
X80899000Y-98094800D03*
X79629000Y-98094800D03*
%TD*%
%TO.N,GND*%
%TO.C,J3*%
X109865312Y-103327200D03*
X109865312Y-105460800D03*
X111135312Y-105460800D03*
X112405312Y-105460800D03*
X113675312Y-105460800D03*
X113675312Y-103327200D03*
X111135312Y-103327200D03*
X112405312Y-103327200D03*
%TD*%
D11*
%TO.N,GND*%
X110621668Y-96012000D03*
X107827668Y-96012000D03*
%TO.N,/IF_UNFILTERED*%
X100711000Y-97028000D03*
D12*
X95935800Y-101727000D03*
%TD*%
%TA.AperFunction,Conductor*%
%TO.N,GND*%
G36*
X113297636Y-90889920D02*
G01*
X113312437Y-90892225D01*
X113312440Y-90892225D01*
X113321309Y-90893606D01*
X113330211Y-90892442D01*
X113330213Y-90892442D01*
X113330271Y-90892434D01*
X113330310Y-90892429D01*
X113360748Y-90892158D01*
X113426515Y-90899568D01*
X113454023Y-90905847D01*
X113534591Y-90934039D01*
X113560012Y-90946281D01*
X113632293Y-90991698D01*
X113654352Y-91009290D01*
X113714710Y-91069648D01*
X113732302Y-91091707D01*
X113777719Y-91163988D01*
X113789961Y-91189409D01*
X113818153Y-91269977D01*
X113824432Y-91297483D01*
X113831102Y-91356675D01*
X113831885Y-91372322D01*
X113831776Y-91381277D01*
X113830394Y-91390151D01*
X113833194Y-91411563D01*
X113834516Y-91421672D01*
X113835580Y-91438010D01*
X113835580Y-117342251D01*
X113834080Y-117361635D01*
X113830394Y-117385309D01*
X113831558Y-117394211D01*
X113831558Y-117394213D01*
X113831571Y-117394309D01*
X113831842Y-117424748D01*
X113824432Y-117490515D01*
X113818153Y-117518023D01*
X113789961Y-117598591D01*
X113777719Y-117624012D01*
X113732302Y-117696293D01*
X113714710Y-117718352D01*
X113654352Y-117778710D01*
X113632293Y-117796302D01*
X113560012Y-117841719D01*
X113534591Y-117853961D01*
X113454023Y-117882153D01*
X113426517Y-117888432D01*
X113412348Y-117890029D01*
X113367320Y-117895102D01*
X113351678Y-117895885D01*
X113342723Y-117895776D01*
X113333849Y-117894394D01*
X113302328Y-117898516D01*
X113285990Y-117899580D01*
X78745749Y-117899580D01*
X78726364Y-117898080D01*
X78711563Y-117895775D01*
X78711560Y-117895775D01*
X78702691Y-117894394D01*
X78693789Y-117895558D01*
X78693787Y-117895558D01*
X78693729Y-117895566D01*
X78693690Y-117895571D01*
X78663252Y-117895842D01*
X78597485Y-117888432D01*
X78569977Y-117882153D01*
X78489409Y-117853961D01*
X78463988Y-117841719D01*
X78391707Y-117796302D01*
X78369648Y-117778710D01*
X78309290Y-117718352D01*
X78291698Y-117696293D01*
X78246281Y-117624012D01*
X78234039Y-117598591D01*
X78205847Y-117518023D01*
X78199568Y-117490517D01*
X78192898Y-117431325D01*
X78192115Y-117415678D01*
X78192224Y-117406723D01*
X78193606Y-117397849D01*
X78189484Y-117366327D01*
X78188420Y-117349990D01*
X78188420Y-101716286D01*
X95168550Y-101716286D01*
X95185243Y-101886536D01*
X95239240Y-102048856D01*
X95242887Y-102054878D01*
X95242888Y-102054880D01*
X95324206Y-102189154D01*
X95324209Y-102189157D01*
X95327856Y-102195180D01*
X95446689Y-102318234D01*
X95589830Y-102411903D01*
X95596434Y-102414359D01*
X95596436Y-102414360D01*
X95743557Y-102469074D01*
X95743559Y-102469074D01*
X95750167Y-102471532D01*
X95829254Y-102482085D01*
X95912749Y-102493226D01*
X95912753Y-102493226D01*
X95919730Y-102494157D01*
X95926741Y-102493519D01*
X95926745Y-102493519D01*
X96083073Y-102479292D01*
X96083075Y-102479292D01*
X96090092Y-102478653D01*
X96096790Y-102476477D01*
X96096793Y-102476476D01*
X96246089Y-102427966D01*
X96246091Y-102427965D01*
X96252785Y-102425790D01*
X96399724Y-102338197D01*
X96523605Y-102220227D01*
X96536879Y-102200249D01*
X96614370Y-102083614D01*
X96618271Y-102077743D01*
X96679018Y-101917826D01*
X96702826Y-101748425D01*
X96703125Y-101727000D01*
X96684056Y-101557000D01*
X96627799Y-101395450D01*
X96537148Y-101250378D01*
X96523959Y-101237096D01*
X96421572Y-101133992D01*
X96416609Y-101128994D01*
X96351339Y-101087573D01*
X96278116Y-101041104D01*
X96278113Y-101041102D01*
X96272173Y-101037333D01*
X96265540Y-101034971D01*
X96117654Y-100982311D01*
X96117649Y-100982310D01*
X96111019Y-100979949D01*
X96104031Y-100979116D01*
X96104028Y-100979115D01*
X95988455Y-100965334D01*
X95941157Y-100959694D01*
X95934154Y-100960430D01*
X95934153Y-100960430D01*
X95889758Y-100965096D01*
X95771028Y-100977575D01*
X95760871Y-100981033D01*
X95615756Y-101030434D01*
X95615753Y-101030435D01*
X95609089Y-101032704D01*
X95463388Y-101122340D01*
X95458357Y-101127267D01*
X95458354Y-101127269D01*
X95451489Y-101133992D01*
X95341166Y-101242028D01*
X95337347Y-101247953D01*
X95337346Y-101247955D01*
X95331935Y-101256352D01*
X95248498Y-101385820D01*
X95246087Y-101392443D01*
X95246086Y-101392446D01*
X95192400Y-101539947D01*
X95192399Y-101539952D01*
X95189990Y-101546570D01*
X95168550Y-101716286D01*
X78188420Y-101716286D01*
X78188420Y-97028000D01*
X99797496Y-97028000D01*
X99817458Y-97217928D01*
X99876473Y-97399556D01*
X99971960Y-97564944D01*
X100099747Y-97706866D01*
X100254248Y-97819118D01*
X100260276Y-97821802D01*
X100260278Y-97821803D01*
X100422681Y-97894109D01*
X100428712Y-97896794D01*
X100522112Y-97916647D01*
X100609056Y-97935128D01*
X100609061Y-97935128D01*
X100615513Y-97936500D01*
X100806487Y-97936500D01*
X100812939Y-97935128D01*
X100812944Y-97935128D01*
X100899888Y-97916647D01*
X100993288Y-97896794D01*
X100999319Y-97894109D01*
X101161722Y-97821803D01*
X101161724Y-97821802D01*
X101167752Y-97819118D01*
X101322253Y-97706866D01*
X101450040Y-97564944D01*
X101545527Y-97399556D01*
X101604542Y-97217928D01*
X101624504Y-97028000D01*
X101604542Y-96838072D01*
X101545527Y-96656444D01*
X101450040Y-96491056D01*
X101322253Y-96349134D01*
X101167752Y-96236882D01*
X101161724Y-96234198D01*
X101161722Y-96234197D01*
X100999319Y-96161891D01*
X100999318Y-96161891D01*
X100993288Y-96159206D01*
X100899888Y-96139353D01*
X100812944Y-96120872D01*
X100812939Y-96120872D01*
X100806487Y-96119500D01*
X100615513Y-96119500D01*
X100609061Y-96120872D01*
X100609056Y-96120872D01*
X100522112Y-96139353D01*
X100428712Y-96159206D01*
X100422682Y-96161891D01*
X100422681Y-96161891D01*
X100260278Y-96234197D01*
X100260276Y-96234198D01*
X100254248Y-96236882D01*
X100099747Y-96349134D01*
X99971960Y-96491056D01*
X99876473Y-96656444D01*
X99817458Y-96838072D01*
X99797496Y-97028000D01*
X78188420Y-97028000D01*
X78188420Y-91445749D01*
X78189920Y-91426364D01*
X78192225Y-91411563D01*
X78192225Y-91411560D01*
X78193606Y-91402691D01*
X78192429Y-91393690D01*
X78192158Y-91363252D01*
X78199568Y-91297485D01*
X78205847Y-91269977D01*
X78234039Y-91189409D01*
X78246281Y-91163988D01*
X78291698Y-91091707D01*
X78309290Y-91069648D01*
X78369648Y-91009290D01*
X78391707Y-90991698D01*
X78463988Y-90946281D01*
X78489409Y-90934039D01*
X78569977Y-90905847D01*
X78597483Y-90899568D01*
X78611652Y-90897971D01*
X78656680Y-90892898D01*
X78672322Y-90892115D01*
X78681277Y-90892224D01*
X78690151Y-90893606D01*
X78721673Y-90889484D01*
X78738010Y-90888420D01*
X113278251Y-90888420D01*
X113297636Y-90889920D01*
G37*
%TD.AperFunction*%
%TD*%
M02*
