%TF.GenerationSoftware,KiCad,Pcbnew,(6.0.4-0)*%
%TF.CreationDate,2022-03-26T13:10:47-05:00*%
%TF.ProjectId,EE515X_Project_With_Matching,45453531-3558-45f5-9072-6f6a6563745f,rev?*%
%TF.SameCoordinates,Original*%
%TF.FileFunction,Copper,L1,Top*%
%TF.FilePolarity,Positive*%
%FSLAX46Y46*%
G04 Gerber Fmt 4.6, Leading zero omitted, Abs format (unit mm)*
G04 Created by KiCad (PCBNEW (6.0.4-0)) date 2022-03-26 13:10:47*
%MOMM*%
%LPD*%
G01*
G04 APERTURE LIST*
G04 Aperture macros list*
%AMRoundRect*
0 Rectangle with rounded corners*
0 $1 Rounding radius*
0 $2 $3 $4 $5 $6 $7 $8 $9 X,Y pos of 4 corners*
0 Add a 4 corners polygon primitive as box body*
4,1,4,$2,$3,$4,$5,$6,$7,$8,$9,$2,$3,0*
0 Add four circle primitives for the rounded corners*
1,1,$1+$1,$2,$3*
1,1,$1+$1,$4,$5*
1,1,$1+$1,$6,$7*
1,1,$1+$1,$8,$9*
0 Add four rect primitives between the rounded corners*
20,1,$1+$1,$2,$3,$4,$5,0*
20,1,$1+$1,$4,$5,$6,$7,0*
20,1,$1+$1,$6,$7,$8,$9,0*
20,1,$1+$1,$8,$9,$2,$3,0*%
%AMFreePoly0*
4,1,24,0.194016,2.484503,0.387086,2.464210,0.578271,2.430499,0.766638,2.383534,0.951270,2.323543,1.131268,2.250819,1.305755,2.165716,1.473880,2.068649,1.634824,1.960091,1.787804,1.840570,0.171450,-0.085725,-0.171450,-0.085725,-1.787804,1.840570,-1.634824,1.960091,-1.473880,2.068649,-1.305755,2.165716,-1.131268,2.250819,-0.951270,2.323543,-0.766638,2.383534,-0.578271,2.430499,
-0.387086,2.464210,-0.194016,2.484503,0.000000,2.491278,0.194016,2.484503,0.194016,2.484503,$1*%
G04 Aperture macros list end*
%TA.AperFunction,EtchedComponent*%
%ADD10C,0.149860*%
%TD*%
%TA.AperFunction,SMDPad,CuDef*%
%ADD11R,1.016000X0.508000*%
%TD*%
%TA.AperFunction,ComponentPad*%
%ADD12C,0.762000*%
%TD*%
%TA.AperFunction,SMDPad,CuDef*%
%ADD13R,5.537200X3.449320*%
%TD*%
%TA.AperFunction,SMDPad,CuDef*%
%ADD14FreePoly0,0.000000*%
%TD*%
%TA.AperFunction,SMDPad,CuDef*%
%ADD15RoundRect,0.225000X0.250000X-0.225000X0.250000X0.225000X-0.250000X0.225000X-0.250000X-0.225000X0*%
%TD*%
%TA.AperFunction,SMDPad,CuDef*%
%ADD16R,0.600000X0.700000*%
%TD*%
%TA.AperFunction,SMDPad,CuDef*%
%ADD17C,0.149860*%
%TD*%
%TA.AperFunction,SMDPad,CuDef*%
%ADD18RoundRect,0.200000X-0.275000X0.200000X-0.275000X-0.200000X0.275000X-0.200000X0.275000X0.200000X0*%
%TD*%
%TA.AperFunction,SMDPad,CuDef*%
%ADD19RoundRect,0.218750X-0.381250X0.218750X-0.381250X-0.218750X0.381250X-0.218750X0.381250X0.218750X0*%
%TD*%
%TA.AperFunction,ViaPad*%
%ADD20C,0.800000*%
%TD*%
%TA.AperFunction,ViaPad*%
%ADD21C,0.508000*%
%TD*%
%TA.AperFunction,Conductor*%
%ADD22C,0.312420*%
%TD*%
%TA.AperFunction,Conductor*%
%ADD23C,0.127000*%
%TD*%
%TA.AperFunction,Conductor*%
%ADD24C,0.254000*%
%TD*%
G04 APERTURE END LIST*
D10*
%TO.C,HY1*%
X99961700Y-104394000D02*
G75*
G03*
X99961700Y-104394000I-4013200J0D01*
G01*
%TD*%
D11*
%TO.P,J2,1,In*%
%TO.N,/RF*%
X78221688Y-111760000D03*
D12*
%TO.P,J2,2,Ext*%
%TO.N,GND*%
X82158688Y-112826800D03*
X82158688Y-110693200D03*
X80888688Y-110693200D03*
D13*
X80482288Y-114100610D03*
D12*
X79618688Y-110693200D03*
X78348688Y-110693200D03*
X78348688Y-112826800D03*
X80888688Y-112826800D03*
X79618688Y-112826800D03*
D13*
X80482288Y-109419390D03*
%TD*%
D11*
%TO.P,J1,1,In*%
%TO.N,/LO*%
X78232000Y-97028000D03*
D12*
%TO.P,J1,2,Ext*%
%TO.N,GND*%
X82169000Y-98094800D03*
X82169000Y-95961200D03*
X80899000Y-95961200D03*
D13*
X80492600Y-99368610D03*
D12*
X79629000Y-95961200D03*
X78359000Y-95961200D03*
X78359000Y-98094800D03*
X80899000Y-98094800D03*
X79629000Y-98094800D03*
D13*
X80492600Y-94687390D03*
%TD*%
D11*
%TO.P,J3,1,In*%
%TO.N,/IF_FILTERED*%
X113802312Y-104394000D03*
D12*
%TO.P,J3,2,Ext*%
%TO.N,GND*%
X109865312Y-103327200D03*
X109865312Y-105460800D03*
X111135312Y-105460800D03*
D13*
X111541712Y-102053390D03*
D12*
X112405312Y-105460800D03*
X113675312Y-105460800D03*
X113675312Y-103327200D03*
X111135312Y-103327200D03*
X112405312Y-103327200D03*
D13*
X111541712Y-106734610D03*
%TD*%
D14*
%TO.P,ST1,1*%
%TO.N,/IF_UNFILTERED*%
X95948500Y-103598200D03*
%TD*%
D15*
%TO.P,C1,2*%
%TO.N,GND*%
X107823000Y-97142000D03*
%TO.P,C1,1*%
%TO.N,/IF_FILTERED*%
X107823000Y-98692000D03*
%TD*%
D16*
%TO.P,D2,2,A*%
%TO.N,/IF_UNFILTERED*%
X96518500Y-104030000D03*
%TO.P,D2,1,K*%
%TO.N,/DIFF*%
X97918500Y-104030000D03*
%TD*%
D17*
%TO.P,HY1,4,Diff*%
%TO.N,/DIFF*%
X99424033Y-106400600D03*
%TO.P,HY1,3,In2*%
%TO.N,/RF*%
X95948500Y-108407200D03*
%TO.P,HY1,2,Sum*%
%TO.N,/SUM*%
X92472967Y-106400600D03*
%TO.P,HY1,1,In1*%
%TO.N,/LO*%
X92472967Y-102387400D03*
%TD*%
D18*
%TO.P,R1,2*%
%TO.N,Net-(L1-Pad1)*%
X101985668Y-98742000D03*
%TO.P,R1,1*%
%TO.N,/IF_UNFILTERED*%
X101985668Y-97092000D03*
%TD*%
%TO.P,R2,2*%
%TO.N,/IF_FILTERED*%
X110621668Y-98742000D03*
%TO.P,R2,1*%
%TO.N,GND*%
X110621668Y-97092000D03*
%TD*%
D16*
%TO.P,D1,1,K*%
%TO.N,/IF_UNFILTERED*%
X95378500Y-104030000D03*
%TO.P,D1,2,A*%
%TO.N,/SUM*%
X93978500Y-104030000D03*
%TD*%
D19*
%TO.P,L1,2,2*%
%TO.N,/IF_FILTERED*%
X104904334Y-98979500D03*
%TO.P,L1,1,1*%
%TO.N,Net-(L1-Pad1)*%
X104904334Y-96854500D03*
%TD*%
D20*
%TO.N,GND*%
X110621668Y-96012000D03*
X107827668Y-96012000D03*
%TO.N,/IF_UNFILTERED*%
X100711000Y-97028000D03*
D21*
X95935800Y-104893600D03*
%TD*%
D22*
%TO.N,/DIFF*%
X97956083Y-105069913D02*
G75*
G02*
X98135687Y-105144296I17J-253987D01*
G01*
D23*
X99352354Y-106360961D02*
X99384394Y-106360961D01*
X99384394Y-106360961D02*
X99424033Y-106400600D01*
D22*
X97918500Y-105069900D02*
X97956083Y-105069900D01*
X98135688Y-105144295D02*
X99352354Y-106360961D01*
%TO.N,/SUM*%
X93754108Y-105144282D02*
G75*
G02*
X93933726Y-105069900I179592J-179618D01*
G01*
D23*
X92472967Y-106400600D02*
X92497816Y-106400600D01*
X92497816Y-106400600D02*
X92541522Y-106356894D01*
D22*
X93978500Y-105069900D02*
X93933726Y-105069900D01*
X93754121Y-105144295D02*
X92541522Y-106356894D01*
%TO.N,/IF_UNFILTERED*%
X95935800Y-104893600D02*
X95935800Y-103906962D01*
X95935800Y-103906962D02*
X96007631Y-103835131D01*
%TO.N,/DIFF*%
X97918500Y-104030000D02*
X97918500Y-105069900D01*
X97918500Y-105069900D02*
X97917000Y-105071400D01*
X97028000Y-107052600D02*
G75*
G02*
X96469200Y-106493800I0J558800D01*
G01*
X97942400Y-106443000D02*
X97942400Y-106062000D01*
X97028000Y-107052600D02*
X97332800Y-107052600D01*
X97917000Y-105071400D02*
X97409000Y-105071400D01*
X97942400Y-106443000D02*
G75*
G02*
X97332800Y-107052600I-609600J0D01*
G01*
X96469200Y-106011200D02*
X96469200Y-106493800D01*
X96469200Y-106011200D02*
G75*
G02*
X97409000Y-105071400I939800J0D01*
G01*
%TO.N,/SUM*%
X93978500Y-104030000D02*
X93978500Y-105069900D01*
X93978500Y-105069900D02*
X93980000Y-105071400D01*
X95427800Y-106011200D02*
G75*
G03*
X94488000Y-105071400I-939800J0D01*
G01*
X93954600Y-106443000D02*
G75*
G03*
X94564200Y-107052600I609600J0D01*
G01*
X94869000Y-107052600D02*
G75*
G03*
X95427800Y-106493800I0J558800D01*
G01*
X93954600Y-106443000D02*
X93954600Y-106062000D01*
X95427800Y-106011200D02*
X95427800Y-106493800D01*
X93980000Y-105071400D02*
X94488000Y-105071400D01*
X94869000Y-107052600D02*
X94564200Y-107052600D01*
D24*
%TO.N,/IF_FILTERED*%
X107873000Y-98742000D02*
X107823000Y-98692000D01*
X113675300Y-104394000D02*
X108204000Y-104394000D01*
X104904334Y-101094334D02*
X104904334Y-98979500D01*
X104904334Y-98979500D02*
X107535500Y-98979500D01*
X108204000Y-104394000D02*
X104904334Y-101094334D01*
X107535500Y-98979500D02*
X107823000Y-98692000D01*
X110621668Y-98742000D02*
X107873000Y-98742000D01*
%TO.N,GND*%
X107823000Y-96016668D02*
X107827668Y-96012000D01*
X110621668Y-97092000D02*
X110621668Y-96012000D01*
X107823000Y-97142000D02*
X107823000Y-96016668D01*
D22*
%TO.N,/IF_UNFILTERED*%
X95378500Y-103979351D02*
X95522720Y-103835131D01*
X95948500Y-103598200D02*
X95948500Y-103776000D01*
X95948500Y-103776000D02*
X96007631Y-103835131D01*
X96323631Y-103835131D02*
X96518500Y-104030000D01*
X96007631Y-103835131D02*
X96323631Y-103835131D01*
X101921668Y-97028000D02*
X101985668Y-97092000D01*
X96518500Y-104030000D02*
X96518500Y-103928634D01*
X95522720Y-103835131D02*
X96007631Y-103835131D01*
X95378500Y-104030000D02*
X95378500Y-103979351D01*
X100711000Y-97028000D02*
X101921668Y-97028000D01*
%TO.N,/RF*%
X93091000Y-111760000D02*
X95948223Y-108902777D01*
D23*
X95948223Y-108407477D02*
X95948500Y-108407200D01*
X95948223Y-108488494D02*
X95948223Y-108407477D01*
D22*
X78221700Y-111760000D02*
X93091000Y-111760000D01*
X95948223Y-108902777D02*
X95948223Y-108488494D01*
D23*
%TO.N,/LO*%
X92472967Y-102387400D02*
X92444477Y-102387400D01*
X92444477Y-102387400D02*
X92402580Y-102345503D01*
D22*
X87085077Y-97028000D02*
X92402580Y-102345503D01*
X78232000Y-97028000D02*
X87085077Y-97028000D01*
D24*
%TO.N,Net-(L1-Pad1)*%
X103016834Y-98742000D02*
X104904334Y-96854500D01*
X101985668Y-98742000D02*
X103016834Y-98742000D01*
%TD*%
M02*
