M48
; DRILL file {KiCad (6.0.4-0)} date Saturday, March 26, 2022 at 01:16:06 PM
; FORMAT={-:-/ absolute / inch / decimal}
; #@! TF.CreationDate,2022-03-26T13:16:06-05:00
; #@! TF.GenerationSoftware,Kicad,Pcbnew,(6.0.4-0)
; #@! TF.FileFunction,Plated,1,4,PTH
FMAT,2
INCH
; #@! TA.AperFunction,Plated,PTH,ViaDrill
T1C0.0100
; #@! TA.AperFunction,Plated,PTH,ViaDrill
T2C0.0157
; #@! TA.AperFunction,Plated,PTH,ComponentDrill
T3C0.0160
%
G90
G05
T1
X3.777Y-4.163
T2
X3.965Y-3.82
X4.2452Y-3.78
X4.3552Y-3.78
T3
X3.0846Y-4.358
X3.0846Y-4.442
X3.085Y-3.778
X3.085Y-3.862
X3.1346Y-4.358
X3.1346Y-4.442
X3.135Y-3.778
X3.135Y-3.862
X3.1846Y-4.358
X3.1846Y-4.442
X3.185Y-3.778
X3.185Y-3.862
X3.2346Y-4.358
X3.2346Y-4.442
X3.235Y-3.778
X3.235Y-3.862
X4.3254Y-4.068
X4.3254Y-4.152
X4.3754Y-4.068
X4.3754Y-4.152
X4.4254Y-4.068
X4.4254Y-4.152
X4.4754Y-4.068
X4.4754Y-4.152
T0
M30
